<svg width="64" height="120" viewBox="0 0 64 120" fill="none" xmlns="http://www.w3.org/2000/svg">
<path d="M40.2997 79.6998L41.9997 84.2998C42.3275 85.2008 42.2048 86.2042 41.6697 86.9998C41.0626 87.8848 40.0722 88.4301 38.9997 88.4698C37.3259 88.5977 35.8145 87.4705 35.4597 85.8298C35.4597 85.8298 35.3997 85.8298 35.3897 85.8298C35.0582 87.421 33.6236 88.5382 31.9997 88.4698C30.3832 88.5282 28.9599 87.4132 28.6297 85.8298C28.6297 85.8298 28.5697 85.8298 28.5597 85.8298C28.3661 86.7097 27.8302 87.4764 27.0703 87.9605C26.3104 88.4446 25.389 88.6063 24.5097 88.4098C23.7281 88.2813 23.0185 87.8769 22.5097 87.2698C21.85 86.4342 21.6825 85.3115 22.0697 84.3198L23.7297 79.6998C24.1197 78.7165 25.0823 78.0815 26.1397 78.1098H37.8897C38.9471 78.0815 39.9097 78.7165 40.2997 79.6998Z" fill="black"/>
<path d="M39.0997 89.9998V95.0998C39.084 95.6595 38.8465 96.19 38.4395 96.5745C38.0325 96.959 37.4894 97.1659 36.9297 97.1498H34.0997V93.9998C34.0458 92.9484 33.1513 92.1388 32.0997 92.1898C31.58 92.1841 31.077 92.3732 30.6897 92.7198C30.3171 93.041 30.1019 93.5079 30.0997 93.9998V97.1498H27.2697C26.7032 97.1659 26.1541 96.9535 25.7459 96.5604C25.3377 96.1673 25.1048 95.6265 25.0997 95.0598V89.9998H25.1797C26.433 90.0022 27.6434 89.543 28.5797 88.7098C30.5421 90.4218 33.4673 90.4218 35.4297 88.7098C36.3696 89.5501 37.589 90.01 38.8497 89.9998H39.0997Z" fill="black"/>
<path fill-rule="evenodd" clip-rule="evenodd" d="M40.2805 23.8199L41.9405 28.4299C42.3017 29.3226 42.2124 30.3343 41.7005 31.1499C41.2649 31.768 40.6347 32.2223 39.9105 32.4399V39.2399C39.8947 40.0038 39.5761 40.7301 39.0247 41.259C38.4733 41.7879 37.7344 42.076 36.9705 42.0599H27.3105C26.5371 42.0896 25.7842 41.8078 25.2203 41.2778C24.6564 40.7477 24.3287 40.0136 24.3105 39.2399V32.5399C23.6064 32.3787 22.9723 31.9968 22.5005 31.4499C21.8221 30.6031 21.6538 29.4559 22.0605 28.4499L23.7105 23.8299C24.0996 22.8446 25.0614 22.2061 26.1205 22.2299H37.8705C38.9279 22.2016 39.8905 22.8366 40.2805 23.8199ZM33.3519 40.4299H33.3605V40.4599C33.3575 40.45 33.3546 40.44 33.3519 40.4299ZM33.3519 40.4299H30.8105C30.82 40.3535 30.82 40.2763 30.8105 40.1999V38.0899C30.8279 37.7726 30.9747 37.4764 31.2167 37.2703C31.4586 37.0643 31.7745 36.9666 32.0905 36.9999C32.7189 36.9538 33.2674 37.422 33.3205 38.0499V40.1899C33.3205 40.271 33.3311 40.3517 33.3519 40.4299ZM36.9205 40.4299H34.8105C34.82 40.3535 34.82 40.2763 34.8105 40.1999V38.0899C34.7562 36.6174 33.5233 35.4649 32.0505 35.5099C30.5738 35.4593 29.3348 36.6134 29.2805 38.0899V40.2299C29.271 40.3063 29.271 40.3835 29.2805 40.4599H27.2605C26.5239 40.4939 25.8982 39.9263 25.8605 39.1899V32.5199C27.1929 32.3188 28.2629 31.3163 28.5505 29.9999C28.9027 31.597 30.3686 32.6975 32.0005 32.5899C33.603 32.6571 35.023 31.5657 35.3705 29.9999C35.6519 31.3992 36.8108 32.4528 38.2305 32.5999V39.2399C38.1693 39.9214 37.6046 40.4473 36.9205 40.4599V40.4299ZM38.9205 30.8399C39.4506 30.826 39.9418 30.5581 40.2405 30.1199V30.1499C40.448 29.8003 40.474 29.3721 40.3105 28.9999L38.6605 24.4499C38.5141 24.1523 38.2011 23.974 37.8705 23.9999H26.1205C25.8024 23.9708 25.4969 24.1314 25.3405 24.4099L23.6905 28.9999C23.476 29.4243 23.5146 29.9326 23.7905 30.3199C24.0397 30.6262 24.3984 30.8234 24.7905 30.8699C24.9167 30.8846 25.0442 30.8846 25.1705 30.8699C25.9399 30.9119 26.6349 30.4126 26.8405 29.6699C26.9931 28.8246 27.7217 28.2049 28.5805 28.1899C29.4486 28.1895 30.1873 28.8221 30.3205 29.6799C30.524 30.4272 31.228 30.9258 32.0005 30.8699C32.7793 30.9218 33.4831 30.4076 33.6705 29.6499C33.8151 28.7986 34.547 28.1718 35.4105 28.1599C36.2753 28.1587 37.0129 28.7861 37.1505 29.6399C37.3542 30.3927 38.0626 30.8957 38.8405 30.8399H38.9205Z" fill="black"/>
</svg>
